<?xml version="1.0" encoding="utf-8"?>
<!-- Generator: Adobe Illustrator 16.0.0, SVG Export Plug-In . SVG Version: 6.00 Build 0)  -->
<!DOCTYPE svg PUBLIC "-//W3C//DTD SVG 1.1//EN" "http://www.w3.org/Graphics/SVG/1.1/DTD/svg11.dtd">
<svg version="1.1" id="Layer_1" xmlns="http://www.w3.org/2000/svg" xmlns:xlink="http://www.w3.org/1999/xlink" x="0px" y="0px"
	 width="100px" height="100px" viewBox="0 0 100 100" enable-background="new 0 0 100 100" xml:space="preserve">
<path fill="#FFFFFF" d="M83.891,22.971c-4.247-4.247-9.892-6.584-15.897-6.584c-6.007,0-11.652,2.337-15.901,6.584L50,25.064
	l-2.092-2.093c-4.247-4.247-9.895-6.584-15.9-6.584c-6.006,0-11.653,2.337-15.9,6.584c-8.768,8.768-8.768,23.034,0,31.799
	l31.416,31.416c0.514,0.515,1.153,0.831,1.82,0.953c0.225,0.044,0.45,0.065,0.676,0.065c0.889,0,1.779-0.34,2.456-1.018
	l31.416-31.416C92.66,46.005,92.66,31.739,83.891,22.971L83.891,22.971z M78.98,49.858L50,78.839L21.02,49.858
	c-6.059-6.058-6.059-15.914,0-21.975c2.935-2.935,6.838-4.549,10.988-4.549c4.149,0,8.052,1.614,10.986,4.549l4.55,4.552
	c1.305,1.303,3.609,1.303,4.913,0l4.549-4.552c2.933-2.935,6.836-4.549,10.988-4.549c4.15,0,8.052,1.614,10.987,4.549
	C85.04,33.944,85.04,43.801,78.98,49.858L78.98,49.858z M78.98,49.858"/>
</svg>
